<?xml version="1.0" encoding="UTF-8"?>
<svg width="875px" height="189px" viewBox="0 0 875 189" version="1.1" xmlns="http://www.w3.org/2000/svg" xmlns:xlink="http://www.w3.org/1999/xlink">
  <g stroke="none" stroke-width="1" fill="none" fill-rule="evenodd">
    <g id="logo">
      <g>
        <path d="M295.75619,157.424497 L275.105477,157.424497 L289.030862,43.6065856 L309.681575,43.6065856 L295.75619,157.424497 Z M423.300058,43.6065856 L409.21643,157.424497 L398.614148,157.424497 C397.03171,157.424497 395.726218,157.149007 394.697633,156.598018 C393.669049,156.04703 392.706413,155.141848 391.809698,153.882445 L347.501655,76.1147441 C347.396159,77.4266215 347.290665,78.6728863 347.185169,79.8535759 C347.079673,81.0342656 346.974179,82.1493446 346.868683,83.1988465 L337.848831,157.424497 L319.730006,157.424497 L333.813634,43.6065856 L344.574159,43.6065856 C345.470874,43.6065856 346.222521,43.6459413 346.829122,43.7246539 C347.435723,43.8033666 347.976382,43.9607895 348.451113,44.1969274 C348.925844,44.4330654 349.347822,44.7610298 349.717057,45.1808305 C350.086293,45.6006313 350.481896,46.1778487 350.90388,46.9125 L395.449288,124.601489 C395.554783,123.027236 395.673465,121.5186 395.805334,120.075535 C395.937204,118.63247 396.082259,117.307493 396.240503,116.100566 L405.181233,43.6065856 L423.300058,43.6065856 Z M461.75311,91.6997693 L466.183914,91.6997693 C468.030092,91.6997693 469.599319,91.4242792 470.891644,90.8732907 C472.183968,90.3223022 473.357592,89.4171204 474.412551,88.1577181 L507.48534,48.0144715 C508.804039,46.2827934 510.241398,45.11524 511.797462,44.5117764 C513.353526,43.9083128 515.160116,43.6065856 517.217286,43.6065856 L534.861381,43.6065856 L494.35117,91.2274958 C493.190716,92.6967985 492.030279,93.9168261 490.869824,94.8876154 C489.709369,95.8584046 488.496185,96.6324006 487.230235,97.2096267 C488.759925,97.8393278 490.118164,98.6920353 491.304992,99.7677747 C492.491821,100.843514 493.533577,102.299676 494.430292,104.136305 L523.547006,157.424497 L505.428181,157.424497 C504.214979,157.424497 503.186409,157.332667 502.342442,157.149004 C501.498475,156.965341 500.773202,156.702969 500.166601,156.361881 C499.56,156.020793 499.058902,155.600999 498.663292,155.102485 C498.267683,154.603972 497.91164,154.039873 497.595152,153.410172 L474.016943,110.98427 C473.33122,109.567443 472.394958,108.570431 471.20813,107.993205 C470.021301,107.415979 468.293832,107.12737 466.025671,107.12737 L459.854194,107.12737 L453.682716,157.424497 L433.269368,157.424497 L447.194753,43.5278733 L467.766344,43.5278733 L461.75311,91.6997693 Z M576.716658,141.524622 C580.356266,141.524622 583.507907,141.026117 586.171678,140.02909 C588.835449,139.032063 591.011268,137.628375 592.699202,135.817984 C594.387136,134.007594 595.639881,131.82991 596.457474,129.284868 C597.275067,126.739826 597.683857,123.945569 597.683857,120.902013 C597.683857,116.756481 596.365179,113.4506 593.727782,110.98427 C591.090385,108.517941 586.765119,107.284794 580.751855,107.284794 L561.446207,107.284794 L557.252768,141.524622 L576.716658,141.524622 Z M567.38032,59.3490352 L563.186881,93.195302 L578.37821,93.195302 C585.446433,93.195302 590.892576,91.5423613 594.716801,88.2364304 C598.541026,84.9304994 600.45311,79.8667287 600.45311,73.0449664 C600.45311,68.2697328 599.094871,64.79331 596.378352,62.6155935 C593.661834,60.4378771 589.428876,59.3490352 583.679351,59.3490352 L567.38032,59.3490352 Z M585.578267,43.6065856 C591.908019,43.6065856 597.327788,44.2231587 601.837736,45.4563234 C606.347685,46.6894881 610.039985,48.4342589 612.914747,50.6906879 C615.78951,52.947117 617.912582,55.675781 619.284028,58.8767617 C620.655475,62.0777425 621.341188,65.6459954 621.341188,69.5816275 C621.341188,72.8350834 620.906024,75.9441861 620.035683,78.9090289 C619.165342,81.8738718 617.807103,84.6156544 615.960925,87.1344589 C614.114747,89.6532634 611.7675,91.9096587 608.919111,93.9037122 C606.070723,95.8977658 602.668532,97.5507065 598.712437,98.8625839 C605.200433,100.489312 610.026796,103.126146 613.191672,106.773165 C616.356549,110.420184 617.938963,115.051042 617.938963,120.665877 C617.938963,125.913386 616.963141,130.780378 615.011467,135.266999 C613.059794,139.753619 610.237821,143.636718 606.545466,146.916411 C602.853111,150.196105 598.356417,152.767346 593.055249,154.630212 C587.754082,156.493078 581.754094,157.424497 575.055106,157.424497 L534.78226,157.424497 L548.865888,43.6065856 L585.578267,43.6065856 Z M696.111011,140.501363 L694.132973,157.424497 L631.943469,157.424497 L646.027097,43.6065856 L666.519568,43.6065856 L654.493099,140.501363 L696.111011,140.501363 Z M741.131148,59.900021 L737.095951,92.250755 L773.254479,92.250755 L771.276442,107.914492 L735.117913,107.914492 L731.003595,141.131061 L777.210555,141.131061 L775.153395,157.424497 L708.374844,157.424497 L722.458472,43.6065856 L789.157902,43.6065856 L787.100743,59.900021 L741.131148,59.900021 Z M826.028524,59.900021 L821.993327,92.250755 L858.151855,92.250755 L856.173818,107.914492 L820.015289,107.914492 L815.900971,141.131061 L862.107931,141.131061 L860.050772,157.424497 L793.27222,157.424497 L807.355848,43.6065856 L874.055278,43.6065856 L871.998119,59.900021 L826.028524,59.900021 Z" id="INKBLEE" fill="#6A5AFF"></path>
        <g>
          <rect id="square" fill="#6A5AFF" x="0" y="0" width="189.891615" height="188.909396" rx="31.4999995"></rect>
          <g id="icon" transform="translate(71.209356, 39.356124)" fill="#FFFFFF">
            <polygon id="bar" points="0 9.4454698 15.8243012 0 15.8243012 85.0092282 0 94.454698"></polygon>
            <polygon id="bar" points="31.6486024 25.1879195 47.4729037 15.7424497 47.4729037 100.751678 31.6486024 110.197148"></polygon>
          </g>
        </g>
      </g>
    </g>
  </g>
</svg>
